# xmcd CD database file
#
# Track frame offsets:
#	150
#	26537
#	28235
#	32232
#	44572
#	59357
#	73082
#	84032
#	94260
#	100942
#	119022
#	130470
#	142092
#	152000
#	161707
#	172750
#	181017
#	191130
#	211760
#	212305
#	215762
#	226505
#	236775
#	239475
#	244240
#	249400
#	252622
#	256570
#	260112
#	263892
#	269152
#	273210
#	275332
#	277650
#	279457
#	283257
#	286312
#	297682
#	298447
#	299307
#	300100
#	300857
#	301627
#	302332
#	303057
#	303797
#	304785
#	305600
#	306247
#	307097
#	308115
#	308925
#	309675
#	310350
#	311207
#	314947
#
# Disc length: 4257 seconds
#
# Revision: 2
# Processed by: cddbd v1.5.2PL0 Copyright (c) Steve Scherf et al.
# Submitted via: CDex 1.51
#
DISCID=50109f38
DTITLE=ADK - ワールドヒーローズ 2
DYEAR=1993
DGENRE=ゲーム音楽
TTITLE0=戻れない時を抱いて (Arrange Version)
TTITLE1=HELL'S GODDESの囁き (タイトル)
TTITLE2=プレイヤーセレクト～マップ～VS
TTITLE3=白夜のフィヨルド (エリックのテーマ)
TTITLE4=風舞うや花散るが如く (リョウコのテーマ)
TTITLE5=TIGER NAIL (シュラのテーマ)
TTITLE6=七つの海のナイスガイ (キッドのテーマ)
TTITLE7=JONNY LET'S DANCE (マキシマムのテーマ)
TTITLE8=M'MADMEEEEN ! (マッドマンのテーマ)
TTITLE9=先に手が出る足が出る (フウマのテーマ)
TTITLE10=異寇の女剣士 (ジャンヌのテーマ)
TTITLE11=MIGHTY STROKE (ドラゴンのテーマ)
TTITLE12=RUSSIAN SPECULATOR -ロシアの山師- (ラスプーチンのテーマ)
TTITLE13=ドイツ機甲師団鎮魂歌 #9 (ブロッケンのテーマ)
TTITLE14=モンゴリアンダイナマイト (J･カーンのテーマ)
TTITLE15=BLACK OUT #1 (マッスルのテーマ)
TTITLE16=INTUITION (ハンゾウのテーマ)
TTITLE17=デスマッチモード - A WAY OF ESCAPE (スクラップ)～THE LAND OF THE HOLY (戦場)～NOT NEW YORK (酒場)～FORESIGHT SONGS (リング)
TTITLE18=ステージクリア
TTITLE19=ガンガン行くべー (ボーナスステージ)
TTITLE20=THE INCARNATION OF A DEVIL (ネオギガスのテーマ)
TTITLE21=MURDER -D- (DIOのテーマ)
TTITLE22=DADDY'S WONDER STORIES (エリック エンディング)
TTITLE23=表に出ようよ (リョウコ エンディング)
TTITLE24=美しき兄弟愛～SHURACHAN ONDO DE BURABURA (シュラ エンディング)
TTITLE25='ANA' -THE- WORLD (キッド エンディング)
TTITLE26=戻れない時を抱いて (マキシマム エンディング)
TTITLE27=RUDDY DRAMING (マッドマン エンディング)
TTITLE28=SHAKE THE COKE (フウマ エンディング)
TTITLE29=LADY ON THE SHINNING HEIGHTS (ジャンヌ エンディング)
TTITLE30=TURN RIGHT THE KNOB ! (ドラゴン エンディング)
TTITLE31=OH ! VANITY MOON (ラスプーチン エンディング)
TTITLE32=BROCKEN, UPSIDE-DOWN (ブロッケン エンディング)
TTITLE33=星は南中 (J･カーン エンディング)
TTITLE34=もう1発NO.1 (マッスル エンディング)
TTITLE35=必○でござる (ハンゾウ エンディング)
TTITLE36=SYMPHONY OF EVIL -邪悪の交響曲- (スタッフロール)
TTITLE37=ゲームオーバー
TTITLE38=ハンゾウ VOICE
TTITLE39=マッスル VOICE
TTITLE40=J･カーン VOICE
TTITLE41=ブロッケン VOICE
TTITLE42=ラスプーチン VOICE
TTITLE43=ドラゴン VOICE
TTITLE44=ジャンヌ VOICE
TTITLE45=フウマ VOICE
TTITLE46=マッドマン VOICE
TTITLE47=マキシマム VOICE
TTITLE48=キッド VOICE
TTITLE49=シュラ VOICE
TTITLE50=リョウコ VOICE
TTITLE51=エリック VOICE
TTITLE52=ネオギガス VOICE
TTITLE53=DIO VOICE
TTITLE54=レフェリー VOICE
TTITLE55=S.E. COLLECTION
EXTD=YEAR: 1993
EXTT0=
EXTT1=
EXTT2=
EXTT3=
EXTT4=
EXTT5=
EXTT6=
EXTT7=
EXTT8=
EXTT9=
EXTT10=
EXTT11=
EXTT12=
EXTT13=
EXTT14=
EXTT15=
EXTT16=
EXTT17=
EXTT18=
EXTT19=
EXTT20=
EXTT21=
EXTT22=
EXTT23=
EXTT24=
EXTT25=
EXTT26=
EXTT27=
EXTT28=
EXTT29=
EXTT30=
EXTT31=
EXTT32=
EXTT33=
EXTT34=
EXTT35=
EXTT36=
EXTT37=
EXTT38=
EXTT39=
EXTT40=
EXTT41=
EXTT42=
EXTT43=
EXTT44=
EXTT45=
EXTT46=
EXTT47=
EXTT48=
EXTT49=
EXTT50=
EXTT51=
EXTT52=
EXTT53=
EXTT54=
EXTT55=
PLAYORDER=
